#!OML:ASF I:\golf\golf\golf 2\Subject 1\2002-09-07\Subject1.ASF
:FULLY-SPECIFIED
:DEGREES
597
root -0.0458362 17.9262 -5.38859 10.0441 -11.1207 -7.39212
lowerback -7.67846 -0.141808 -2.77508
upperback -3.14412 -0.103946 5.54123
thorax 1.05504 -0.012611 7.36245
lowerneck -22.4398 -7.09617 -3.97091
upperneck 19.3342 -9.54933 4.18847
head 10.2692 -4.19004 0.654222
rclavicle 2.14936e-015 -2.38542e-014
rhumerus -29.7979 -2.6542 -79.7869
rradius 29.7759
rwrist -8.23092
rhand -17.4348 10.1329
rfingers 7.12502
rthumb 8.81575 -19.663
lclavicle 2.14936e-015 -2.38542e-014
lhumerus -32.0749 -1.78874 88.6863
lradius 29.5677
lwrist 3.76432
lhand -8.42691 31.6562
lfingers 7.12502
lthumb 17.498 60.8887
rfemur -17.2101 -0.855446 24.8833
rtibia 30.1242
rfoot -15.6187 -4.84961
rtoes -1.97344
lfemur -11.0114 0.57334 -8.64268
ltibia 28.2938
lfoot -17.5601 14.6716
ltoes -13.0497
598
root -0.0709156 17.9262 -5.38108 10.0768 -11.1259 -7.60798
lowerback -7.70107 -0.125607 -2.50396
upperback -3.26529 -0.0988454 5.5663
thorax 0.941435 -0.00621615 7.23154
lowerneck -21.993 -7.07386 -4.01483
upperneck 19.2718 -9.53336 4.24841
head 10.1718 -4.18994 0.698869
rclavicle -4.3832e-014 -1.11319e-014
rhumerus -30.2014 -3.00065 -79.6643
rradius 29.3566
rwrist -7.99015
rhand -17.545 10.2949
rfingers 7.12502
rthumb 8.70947 -19.5054
lclavicle -4.3832e-014 -1.11319e-014
lhumerus -32.361 -1.62249 88.6458
lradius 29.0993
lwrist 3.465
lhand -8.49524 31.4519
lfingers 7.12502
lthumb 17.4323 60.6902
rfemur -17.1021 -0.85913 25.1965
rtibia 30.0355
rfoot -15.5372 -4.81276
rtoes -2.91865
lfemur -10.9498 0.461285 -8.31666
ltibia 28.2866
lfoot -17.6026 14.7408
ltoes -12.5479
599
root -0.0989086 17.9278 -5.37655 10.17 -11.0862 -7.77267
lowerback -7.77341 -0.125452 -2.39703
upperback -3.30545 -0.106835 5.63601
thorax 0.940955 -0.00992692 7.2442
lowerneck -21.9407 -7.09698 -4.02364
upperneck 19.2793 -9.55652 4.2131
head 10.1644 -4.20655 0.685715
rclavicle -3.57067e-014 -1.31198e-014
rhumerus -30.3484 -3.38621 -79.4506
rradius 28.861
rwrist -7.71783
rhand -17.6564 10.4491
rfingers 7.12502
rthumb 8.60197 -19.3557
lclavicle -3.57067e-014 -1.31198e-014
lhumerus -32.4405 -1.36689 88.6666
lradius 28.6746
lwrist 3.03783
lhand -8.3889 31.378
lfingers 7.12502
lthumb 17.5346 60.6072
rfemur -17.0655 -0.84665 25.4759
rtibia 29.9197
rfoot -15.4952 -4.78689
rtoes -2.89232
lfemur -11.0349 0.502252 -8.01863
ltibia 28.3522
lfoot -17.6433 14.6682
ltoes -12.3413
600
root -0.128839 17.9289 -5.37671 10.2284 -11.0673 -7.82383
lowerback -7.87465 -0.135301 -2.53761
upperback -3.24848 -0.113975 5.73089
thorax 1.05673 -0.0163737 7.42926
lowerneck -22.0894 -7.09025 -3.98339
upperneck 19.2627 -9.53141 4.12795
head 10.1769 -4.19932 0.649528
rclavicle -1.68718e-014 -5.1684e-015
rhumerus -30.2999 -3.81962 -79.1675
rradius 28.3541
rwrist -7.35128
rhand -17.7841 10.3262
rfingers 7.12502
rthumb 8.47872 -19.4836
lclavicle -1.68718e-014 -5.1684e-015
lhumerus -32.3956 -1.20063 88.7738
lradius 28.3163
lwrist 2.79434
lhand -8.28519 31.3481
lfingers 7.12502
lthumb 17.6344 60.5684
rfemur -17.02 -0.814569 25.6394
rtibia 29.7618
rfoot -15.4675 -4.72109
rtoes -2.34021
lfemur -11.1554 0.667378 -7.84764
ltibia 28.5034
lfoot -17.6492 14.5735
ltoes -12.7886
601
root -0.155379 17.9207 -5.37654 10.2993 -11.106 -7.86478
lowerback -7.71836 -0.118876 -2.47537
upperback -3.34815 -0.0917763 5.68319
thorax 0.863438 0.00148917 7.34141
lowerneck -22.1974 -7.04836 -3.86687
upperneck 19.3715 -9.51967 4.14529
head 10.23 -4.17891 0.634471
rclavicle -2.34069e-014 -9.54166e-015
rhumerus -30.4488 -4.3323 -79.076
rradius 27.809
rwrist -6.90528
rhand -18.0518 10.1277
rfingers 7.12502
rthumb 8.22031 -19.6924
lclavicle -2.34069e-014 -9.54166e-015
lhumerus -32.5682 -1.15151 88.6608
lradius 27.9592
lwrist 2.7122
lhand -8.28026 31.3919
lfingers 7.12502
lthumb 17.6392 60.6118
rfemur -16.9566 -0.851052 25.7665
rtibia 29.5858
rfoot -15.4619 -4.58739
rtoes -2.25516
lfemur -11.2607 0.622732 -7.7266
ltibia 28.6829
lfoot -17.6415 14.747
ltoes -13.4863
602
root -0.179779 17.9056 -5.37053 10.2935 -11.1859 -7.9747
lowerback -7.72979 -0.0779415 -2.31604
upperback -3.30194 -0.0496721 5.66498
thorax 0.912399 0.0189831 7.23274
lowerneck -22.2642 -7.06644 -3.82314
upperneck 19.3822 -9.56151 4.16068
head 10.2463 -4.19128 0.6241
rclavicle -2.7482e-014 -3.61788e-014
rhumerus -30.4436 -4.80291 -78.9561
rradius 27.2138
rwrist -6.47719
rhand -18.3568 10.1287
rfingers 7.12502
rthumb 7.92597 -19.7027
lclavicle -2.7482e-014 -3.61788e-014
lhumerus -32.559 -0.890517 88.4823
lradius 27.6306
lwrist 2.12005
lhand -7.71454 31.9718
lfingers 7.12502
lthumb 18.1835 61.1419
rfemur -16.7192 -0.851659 25.9466
rtibia 29.4153
rfoot -15.589 -4.51781
rtoes -1.72262
lfemur -11.2189 0.374643 -7.5551
ltibia 28.8574
lfoot -17.7823 15.053
ltoes -13.4969
603
root -0.204147 17.9005 -5.36367 10.269 -11.2064 -8.16525
lowerback -7.80524 -0.0927678 -2.20224
upperback -3.33563 -0.0797931 5.78489
thorax 0.923368 0.00373596 7.29379
lowerneck -21.819 -7.05348 -3.9387
upperneck 19.2898 -9.50735 4.12368
head 10.1346 -4.19117 0.652734
rclavicle 2.12078e-014 9.14409e-015
rhumerus -30.6854 -5.10839 -78.6542
rradius 26.6418
rwrist -5.95027
rhand -18.5757 10.3914
rfingers 7.12502
rthumb 7.71467 -19.4478
lclavicle 2.12078e-014 9.14409e-015
lhumerus -32.7941 -0.338429 88.3941
lradius 27.2683
lwrist 1.38449
lhand -7.24273 32.3902
lfingers 7.12502
lthumb 18.6374 61.5173
rfemur -16.4764 -0.780395 26.2168
rtibia 29.2573
rfoot -15.6689 -4.52221
rtoes -1.33674
lfemur -11.1572 0.316837 -7.26848
ltibia 29.0133
lfoot -18.0247 15.0738
ltoes -12.8781
604
root -0.229013 17.9013 -5.35825 10.3577 -11.2123 -8.33021
lowerback -7.95692 -0.00910461 -2.00285
upperback -3.18752 0.0114799 5.76529
thorax 1.14947 0.0395336 7.16689
lowerneck -22.4147 -7.09954 -3.7949
upperneck 19.4541 -9.59619 4.0831
head 10.2946 -4.20979 0.581411
rclavicle -4.65902e-015 -3.45885e-014
rhumerus -30.4541 -6.11225 -78.3389
rradius 25.9446
rwrist -5.04898
rhand -18.496 10.5701
rfingers 7.12502
rthumb 7.79164 -19.2663
lclavicle -4.65902e-015 -3.45885e-014
lhumerus -32.457 -0.252606 88.3357
lradius 26.7342
lwrist 1.20865
lhand -7.32298 32.3556
lfingers 7.12502
lthumb 18.5602 61.4901
rfemur -16.4456 -0.813217 26.4722
rtibia 29.1345
rfoot -15.6299 -4.44951
rtoes -2.06106
lfemur -11.2297 0.529941 -6.9809
ltibia 29.1263
lfoot -18.2107 14.8697
ltoes -12.4699
605
root -0.256608 17.8972 -5.35173 10.4136 -11.2637 -8.42329
lowerback -8.02439 0.005871 -1.96304
upperback -3.26927 0.0301878 5.78147
thorax 1.09923 0.0516054 7.16319
lowerneck -22.1762 -7.0692 -3.80769
upperneck 19.413 -9.56831 4.1298
head 10.2393 -4.19843 0.612058
rclavicle 1.37907e-015 7.95139e-016
rhumerus -30.7047 -6.88719 -77.9434
rradius 25.3788
rwrist -3.96305
rhand -17.9429 10.411
rfingers 7.12502
rthumb 8.32542 -19.4049
lclavicle 1.37907e-015 7.95139e-016
lhumerus -32.7508 -0.093286 88.2534
lradius 26.4123
lwrist 1.06788
lhand -7.29543 32.3894
lfingers 7.12502
lthumb 18.5867 61.5215
rfemur -16.4189 -0.84722 26.6636
rtibia 29.0814
rfoot -15.6416 -4.43436
rtoes -3.45539
lfemur -11.223 0.695495 -6.77532
ltibia 29.1581
lfoot -18.2901 14.7903
ltoes -12.6601
606
root -0.283395 17.8903 -5.3472 10.3948 -11.2734 -8.502
lowerback -8.02286 0.0148599 -1.93289
upperback -3.25607 0.0390924 5.79852
thorax 1.11093 0.0553913 7.16487
lowerneck -22.1789 -7.07427 -3.78982
upperneck 19.4575 -9.58278 4.1234
head 10.2551 -4.20363 0.60399
rclavicle 4.81929e-014 1.39149e-014
rhumerus -30.8155 -7.63838 -77.5456
rradius 24.8509
rwrist -2.99784
rhand -17.4337 10.6223
rfingers 7.12502
rthumb 8.81686 -19.1735
lclavicle 4.81929e-014 1.39149e-014
lhumerus -32.886 0.0253796 88.1702
lradius 26.0772
lwrist 0.97831
lhand -7.36831 32.2841
lfingers 7.12502
lthumb 18.5166 61.4228
rfemur -16.3427 -0.807249 26.8401
rtibia 29.1009
rfoot -15.7599 -4.47279
rtoes -4.00925
lfemur -11.1047 0.694887 -6.59105
ltibia 29.107
lfoot -18.2678 14.8348
ltoes -12.799
607
root -0.304895 17.8845 -5.34645 10.391 -11.2671 -8.56904
lowerback -8.00005 0.0522054 -1.82313
upperback -3.17092 0.0787558 5.76793
thorax 1.18218 0.0711605 7.07179
lowerneck -22.4222 -7.09519 -3.64384
upperneck 19.4939 -9.63651 4.05466
head 10.3025 -4.21963 0.540579
rclavicle -2.75441e-014 3.77691e-014
rhumerus -30.7913 -8.42218 -77.2511
rradius 24.3001
rwrist -2.34786
rhand -17.434 11.0881
rfingers 7.12502
rthumb 8.81651 -18.7077
lclavicle -2.75441e-014 3.77691e-014
lhumerus -32.7186 0.145741 88.0516
lradius 25.5535
lwrist 0.91073
lhand -7.43708 32.2069
lfingers 7.12502
lthumb 18.4504 61.3519
rfemur -16.326 -0.865418 26.9832
rtibia 29.1451
rfoot -15.905 -4.35002
rtoes -3.548
lfemur -11.0297 0.596135 -6.43345
ltibia 29.0322
lfoot -18.2702 14.8663
ltoes -12.3007
608
root -0.326479 17.8824 -5.34735 10.4628 -11.2656 -8.52692
lowerback -7.94425 0.0661153 -1.84166
upperback -3.28595 0.104824 5.71285
thorax 1.02828 0.0901505 7.02414
lowerneck -22.2824 -7.06758 -3.58639
upperneck 19.4863 -9.63016 4.08545
head 10.2733 -4.21201 0.54779
rclavicle 8.94531e-016 9.14409e-015
rhumerus -31.1242 -9.07854 -76.9463
rradius 23.8691
rwrist -1.72982
rhand -17.6165 10.9368
rfingers 7.12502
rthumb 8.64046 -18.8664
lclavicle 8.94531e-016 9.14409e-015
lhumerus -32.9134 0.264379 87.9783
lradius 25.058
lwrist 1.28024
lhand -8.23927 31.9052
lfingers 7.12502
lthumb 17.6786 61.1215
rfemur -16.417 -0.93071 27.0013
rtibia 29.1616
rfoot -15.981 -4.19367
rtoes -2.86066
lfemur -11.0973 0.390121 -6.40992
ltibia 28.9829
lfoot -18.2295 15.0338
ltoes -12.1186
609
root -0.350909 17.8808 -5.34677 10.5747 -11.2907 -8.50335
lowerback -7.91516 0.058103 -1.92532
upperback -3.42194 0.105093 5.72486
thorax 0.870041 0.0974743 7.08464
lowerneck -22.224 -7.03602 -3.67816
upperneck 19.5962 -9.58809 4.1738
head 10.311 -4.18792 0.599964
rclavicle 1.20016e-014 6.2816e-014
rhumerus -31.4444 -9.56971 -76.5882
rradius 23.4915
rwrist -1.18907
rhand -17.6457 10.4026
rfingers 7.12502
rthumb 8.61224 -19.4017
lclavicle 1.20016e-014 6.2816e-014
lhumerus -33.1869 0.543579 87.9227
lradius 24.6303
lwrist 1.54131
lhand -9.02616 31.5024
lfingers 7.12502
lthumb 16.9213 60.7853
rfemur -16.5165 -0.862052 27.0362
rtibia 29.1498
rfoot -16.0004 -4.11449
rtoes -2.36301
lfemur -11.1831 0.272885 -6.38208
ltibia 28.9537
lfoot -18.1054 15.3064
ltoes -12.5591
610
root -0.375449 17.8787 -5.34126 10.5523 -11.2546 -8.69716
lowerback -7.94226 0.021166 -1.82444
upperback -3.35247 0.0426621 5.85309
thorax 0.965695 0.0619927 7.15934
lowerneck -22.2104 -7.02952 -3.82123
upperneck 19.5422 -9.54341 4.23596
head 10.2982 -4.17181 0.652434
rclavicle 6.41081e-015 1.78906e-014
rhumerus -31.5036 -9.74407 -76.3684
rradius 23.1519
rwrist -1.22655
rhand -17.889 9.59872
rfingers 7.12502
rthumb 8.37742 -20.2151
lclavicle 6.41081e-015 1.78906e-014
lhumerus -33.1662 1.16324 87.7504
lradius 24.2103
lwrist 0.925124
lhand -8.65709 31.4432
lfingers 7.12502
lthumb 17.2765 60.6952
rfemur -16.3828 -0.834776 27.3188
rtibia 29.1081
rfoot -16.0262 -4.07221
rtoes -1.99712
lfemur -11.075 0.306477 -6.087
ltibia 28.9497
lfoot -18.0957 15.3132
ltoes -12.7679
